# xmcd
#
# Track frame offsets:
#	150
#	26333
#	43412
#	70588
#	107579
#	107898
#	124004
#	140463
#	158668
#	177296
#	199330
#	218166
#	239184
#	261718
#	282464
#	307887
#
# Disc length: 4369 seconds
#
# Revision: 1
# Processed by: cddbd v1.4PL0 Copyright (c) Steve Scherf et al.
# Submitted via: EasyCDDAExtractor 6.0.0.1
#
DISCID=f5110f10
DTITLE=Dire Straits - Sultans Of Swing
DYEAR=1900
DGENRE=
TTITLE0=Sultans of swing
TTITLE1=Lady writer
TTITLE2=Romeo and Juliet
TTITLE3=Tunnel of love
TTITLE4=Private investigations
TTITLE5=Twisting by the pool
TTITLE6=Love over gold (live)
TTITLE7=So far away
TTITLE8=Money for nothing
TTITLE9=Brothers in arms
TTITLE10=Walk of life
TTITLE11=Calling Elvis
TTITLE12=Heavy Fuel
TTITLE13=On every street
TTITLE14=Your latest trick
TTITLE15=Local hero (live)
EXTD=
EXTT0=
EXTT1=
EXTT2=
EXTT3=
EXTT4=
EXTT5=
EXTT6=
EXTT7=
EXTT8=
EXTT9=
EXTT10=
EXTT11=
EXTT12=
EXTT13=
EXTT14=
EXTT15=
PLAYORDER=
